<?xml version="1.0" encoding="UTF-8"?>
<svg version="1.1" xmlns="http://www.w3.org/2000/svg" width="1024" height="1024">
<path d="M0 0 C337.92 0 675.84 0 1024 0 C1024 337.92 1024 675.84 1024 1024 C686.08 1024 348.16 1024 0 1024 C0 686.08 0 348.16 0 0 Z " fill="#FEFEFE" transform="translate(0,0)"/>
<path d="M0 0 C2.30719802 1.69738305 4.37463573 3.47955519 6.4453125 5.45703125 C7.09371094 6.06546875 7.74210937 6.67390625 8.41015625 7.30078125 C15.14416135 14.24833831 17.63303127 21.93417654 17.8828125 31.51953125 C17.30395034 48.16181834 7.80598071 61.37223909 -1.4296875 74.64453125 C-2.95005812 76.84488414 -4.46708225 79.04752136 -5.984375 81.25 C-6.64679199 82.20414795 -7.30920898 83.1582959 -7.99169922 84.14135742 C-9.55494532 86.34945655 -9.55494532 86.34945655 -10.5546875 88.45703125 C-9.49924744 88.4058741 -9.49924744 88.4058741 -8.42248535 88.35368347 C-1.71724669 88.04804956 4.98244533 87.8481451 11.69425201 87.76012707 C15.14458696 87.71132674 18.58455705 87.62505831 22.03076172 87.44555664 C44.15628592 86.33248755 44.15628592 86.33248755 51.28662109 91.5269165 C56.82519399 97.11773756 60.74143713 103.56360815 64.4453125 110.45703125 C65.4353125 112.10703125 66.4253125 113.75703125 67.4453125 115.45703125 C23.5553125 115.45703125 -20.3346875 115.45703125 -65.5546875 115.45703125 C-61.05940448 107.59028597 -61.05940448 107.59028597 -58.5234375 104.21484375 C-57.96648193 103.46775146 -57.40952637 102.72065918 -56.83569336 101.95092773 C-55.95409546 100.77832397 -55.95409546 100.77832397 -55.0546875 99.58203125 C-49.94842109 92.72375164 -44.93726001 85.81301882 -40.03198242 78.80981445 C-36.91383088 74.36441515 -33.74628551 69.95922775 -30.54614258 65.57250977 C-16.46697471 48.25279898 -16.46697471 48.25279898 -12.5546875 27.45703125 C-14.20180437 24.05979471 -14.20180437 24.05979471 -17.5546875 22.45703125 C-22.03386877 21.71539632 -26.00676296 21.9293297 -30.3046875 23.39453125 C-33.77709464 26.57757112 -36.11288707 30.4544924 -38.5546875 34.45703125 C-41.95671183 33.16778769 -45.06033304 31.69182365 -48.19921875 29.85546875 C-49.46088867 29.12070312 -49.46088867 29.12070312 -50.74804688 28.37109375 C-51.61236328 27.86320312 -52.47667969 27.3553125 -53.3671875 26.83203125 C-54.25083984 26.31640625 -55.13449219 25.80078125 -56.04492188 25.26953125 C-58.21663539 24.00172011 -60.3864693 22.73080777 -62.5546875 21.45703125 C-59.52811602 11.64530884 -54.23012229 4.95052203 -45.5546875 -0.54296875 C-31.66937514 -7.86391068 -13.68064481 -8.26277477 0 0 Z " fill="#F3160E" transform="translate(146.5546875,438.54296875)"/>
<path d="M0 0 C5.62301427 4.49841141 5.62301427 4.49841141 7.9453125 7.80078125 C8.45924561 8.52297852 8.97317871 9.24517578 9.50268555 9.98925781 C10.03804932 10.75592773 10.57341309 11.52259766 11.125 12.3125 C12.27939964 13.93919132 13.43435621 15.56548752 14.58984375 17.19140625 C15.16331543 18.0023877 15.73678711 18.81336914 16.32763672 19.64892578 C18.74280916 23.04427039 21.21261853 26.39806933 23.6875 29.75 C27.64592096 35.12873243 31.55420824 40.54075639 35.42016602 45.98632812 C37.39042371 48.75925392 39.37464458 51.51871165 41.40234375 54.25 C42.50255859 55.735 42.50255859 55.735 43.625 57.25 C44.60339844 58.55710937 44.60339844 58.55710937 45.6015625 59.890625 C47 62 47 62 47 64 C51.38853796 59.85023803 55.01843049 55.28883084 58.6875 50.5 C59.30399414 49.70118408 59.92048828 48.90236816 60.55566406 48.0793457 C62.37376637 45.72209995 64.18724486 43.36135885 66 41 C66.92807417 39.79533307 67.85642704 38.59088075 68.78515625 37.38671875 C71.19440303 34.26110825 73.59731162 31.13065522 76 28 C76.82796547 26.92305442 77.65609292 25.84623335 78.484375 24.76953125 C78.89969482 24.2295752 79.31501465 23.68961914 79.74291992 23.13330078 C80.57327452 22.05443649 81.4041566 20.97597795 82.2355957 19.89794922 C84.42014684 17.06368059 86.59159648 14.22048078 88.74609375 11.36328125 C89.19662109 10.76902344 89.64714844 10.17476563 90.11132812 9.5625 C90.97451389 8.42345075 91.83408854 7.28165293 92.68945312 6.13671875 C94.66943803 3.5316477 96.24207622 1.83861585 99 0 C99 39.93 99 79.86 99 121 C89.43 121 79.86 121 70 121 C70 106.48 70 91.96 70 77 C63.71363772 84.54363474 57.66560558 91.9644367 51.953125 99.8984375 C50.68062926 101.63305012 49.34598824 103.32177415 48 105 C47.34 105 46.68 105 46 105 C44.50708008 103.13916016 44.50708008 103.13916016 42.76953125 100.5390625 C41.81143555 99.11787109 41.81143555 99.11787109 40.83398438 97.66796875 C40.16689453 96.66378906 39.49980469 95.65960937 38.8125 94.625 C37.50712415 92.67927561 36.20113747 90.73396088 34.89453125 88.7890625 C34.25338379 87.83161133 33.61223633 86.87416016 32.95166016 85.88769531 C30.02207573 81.55305376 27.01381747 77.27641545 24 73 C23.67 77.95 23.34 82.9 23 88 C15.41 88 7.82 88 0 88 C0 58.96 0 29.92 0 0 Z " fill="#F3170F" transform="translate(168,433)"/>
<path d="M0 0 C6.24106166 6.8084309 5.50140552 14.6441253 5.4609375 23.3984375 C5.46296226 24.7793493 5.46587703 26.16026005 5.46963501 27.54116821 C5.47404249 30.4276147 5.46768067 33.31378151 5.45361328 36.20019531 C5.43655418 39.87734545 5.44635121 43.55383694 5.46433067 47.23096275 C5.47523911 50.08109378 5.47168956 52.93107208 5.4639473 55.78120804 C5.46100627 57.78898806 5.47002976 59.79677432 5.4793396 61.80453491 C5.4207025 69.48124952 5.26623446 77.03782613 0.44921875 83.37109375 C-0.39189453 84.02271484 -0.39189453 84.02271484 -1.25 84.6875 C-1.80300781 85.13996094 -2.35601563 85.59242188 -2.92578125 86.05859375 C-10.53388652 90.56436483 -19.98130606 90.25642294 -28.48046875 88.8203125 C-33.61129638 87.21258701 -37.24784532 83.81031416 -39.9375 79.25 C-40.89413587 75.4458155 -41.07952723 71.84854324 -41.11450195 67.93432617 C-41.12733719 66.67919724 -41.14017242 65.4240683 -41.15339661 64.13090515 C-41.16156507 62.76826374 -41.1690086 61.40561782 -41.17578125 60.04296875 C-41.17985678 59.35145533 -41.1839323 58.6599419 -41.18813133 57.94747353 C-41.20893515 54.28782075 -41.22326186 50.62820484 -41.23266602 46.96850586 C-41.24372486 43.205964 -41.2781342 39.4440144 -41.31783772 35.68168163 C-41.34408459 32.77243513 -41.35236488 29.86332823 -41.35594749 26.95397377 C-41.36079185 25.56779284 -41.37234402 24.18161725 -41.39098549 22.79555321 C-41.49090112 14.8749295 -41.40401517 8.94202099 -36.9375 2.25 C-26.73955809 -7.29054886 -11.58992295 -6.90463495 0 0 Z " fill="#0D0D10" transform="translate(708.9375,466.75)"/>
<path d="M0 0 C6.39186993 6.76786228 5.56805981 14.8793849 5.5234375 23.65234375 C5.52546194 25.0580714 5.52837645 26.46379801 5.53213501 27.86952209 C5.53654246 30.80724139 5.53017972 33.74468587 5.51611328 36.68237305 C5.4990378 40.42911939 5.50886167 44.17522011 5.52683067 47.92194271 C5.53772511 50.82264477 5.53419616 53.72319642 5.5264473 56.62390327 C5.52446006 58.00446208 5.52685211 59.38503499 5.53388596 60.76557732 C5.56904079 69.60457299 5.55136126 76.84467838 -0.0625 84.0625 C-7.65495861 89.96774558 -15.55320186 90.05491606 -24.875 89.25 C-29.92203357 88.16343115 -34.35733875 86.06917507 -37.875 82.25 C-41.50518872 74.97361341 -41.32717991 67.33394384 -41.30859375 59.37890625 C-41.3138356 58.06139877 -41.31907745 56.7438913 -41.32447815 55.38645935 C-41.33336275 52.61032458 -41.33103985 49.8344782 -41.32104492 47.05834961 C-41.30956015 43.52693619 -41.3297814 39.99652356 -41.35896206 36.46524143 C-41.3818769 33.0614129 -41.37485075 29.65780971 -41.37109375 26.25390625 C-41.38232773 24.99945206 -41.39356171 23.74499786 -41.40513611 22.45252991 C-41.34423925 14.71810626 -40.94316031 6.37554229 -35.19822693 0.54957581 C-25.06235142 -7.50332003 -10.59639664 -6.44998057 0 0 Z " fill="#0C0C0E" transform="translate(602.875,466.75)"/>
<path d="M0 0 C5.94 0 11.88 0 18 0 C19.61846985 5.24260331 21.23621956 10.48541916 22.85229492 15.72875977 C23.39975129 17.50427229 23.94758915 19.27966725 24.49584961 21.05493164 C25.29386632 23.63915991 26.09040696 26.22383968 26.88671875 28.80859375 C27.24173714 29.95659706 27.24173714 29.95659706 27.60392761 31.12779236 C30.14844202 39.39686328 32.55804215 47.69734332 35 56 C35.33 37.52 35.66 19.04 36 0 C40.29 0 44.58 0 49 0 C49 30.36 49 60.72 49 92 C44.05 92 39.1 92 34 92 C26.59846068 70.50404005 20.13176938 48.89917634 14 27 C13.67 48.45 13.34 69.9 13 92 C8.71 92 4.42 92 0 92 C0 61.64 0 31.28 0 0 Z " fill="#0F0F12" transform="translate(501,463)"/>
<path d="M0 0 C5.75734517 2.0831746 9.15816277 5.31347409 11.96484375 10.7109375 C12.5859375 13.5 12.5859375 13.5 11.96484375 16.7109375 C9.50890082 19.31339515 6.60654226 21.21232419 3.65234375 23.2109375 C1.89291198 24.4526757 0.13380608 25.69487573 -1.625 26.9375 C-2.52847168 27.5655957 -3.43194336 28.19369141 -4.36279297 28.84082031 C-8.42978631 31.68689824 -12.41997375 34.63360763 -16.41015625 37.5859375 C-17.18214355 38.15401123 -17.95413086 38.72208496 -18.74951172 39.30737305 C-24.86994278 43.8193825 -30.92826508 48.41022965 -36.97265625 53.0234375 C-37.85735596 53.69745605 -38.74205566 54.37147461 -39.65356445 55.06591797 C-43.41294328 57.93280277 -47.16570508 60.80610545 -50.88671875 63.72265625 C-51.44109619 64.15215576 -51.99547363 64.58165527 -52.56665039 65.02416992 C-53.96883894 66.11108405 -55.36371044 67.20742068 -56.7578125 68.3046875 C-59.03515625 69.7109375 -59.03515625 69.7109375 -63.03515625 69.7109375 C-65.71056375 68.54314149 -68.27228706 67.32467405 -70.86328125 65.9921875 C-71.61228699 65.61485474 -72.36129272 65.23752197 -73.13299561 64.84875488 C-75.52091254 63.64361464 -77.9030209 62.42745944 -80.28515625 61.2109375 C-81.90457733 60.39119457 -83.52436497 59.57217536 -85.14453125 58.75390625 C-89.11237285 56.74795168 -93.07504174 54.73210102 -97.03515625 52.7109375 C-93.9326371 50.14122962 -90.88222561 47.91990065 -87.359375 45.96875 C-86.46178467 45.46746582 -85.56419434 44.96618164 -84.6394043 44.44970703 C-83.67687744 43.91716309 -82.71435059 43.38461914 -81.72265625 42.8359375 C-73.51051742 38.24444233 -65.34047406 33.59228702 -57.22265625 28.8359375 C-47.54185846 23.16774869 -37.83600697 17.54487962 -28.11401367 11.94775391 C-26.59771362 11.07449463 -26.59771362 11.07449463 -25.05078125 10.18359375 C-24.06287598 9.61761475 -23.0749707 9.05163574 -22.05712891 8.46850586 C-19.94932995 7.24261761 -17.85619171 5.99132241 -15.77490234 4.72094727 C-14.71867676 4.08084717 -13.66245117 3.44074707 -12.57421875 2.78125 C-11.62756348 2.19746582 -10.6809082 1.61368164 -9.70556641 1.01220703 C-6.23756343 -0.67772311 -3.72722971 -0.82228214 0 0 Z " fill="#0D0D10" transform="translate(937.03515625,438.2890625)"/>
<path d="M0 0 C4.62 0 9.24 0 14 0 C14 30.03 14 60.06 14 91 C9.38 91 4.76 91 0 91 C0 77.47 0 63.94 0 50 C-6.6 50 -13.2 50 -20 50 C-20 63.53 -20 77.06 -20 91 C-24.62 91 -29.24 91 -34 91 C-33.67 61.3 -33.34 31.6 -33 1 C-28.71 1 -24.42 1 -20 1 C-20 13.21 -20 25.42 -20 38 C-13.4 38 -6.8 38 0 38 C0 25.46 0 12.92 0 0 Z " fill="#0C0C0F" transform="translate(476,463)"/>
<path d="M0 0 C3.54899421 3.54899421 5.07752395 6.81793155 5.48046875 11.8359375 C5.3828125 15.28645833 5.28515625 18.73697917 5.1875 22.1875 C0.5675 22.1875 -4.0525 22.1875 -8.8125 22.1875 C-8.97526042 19.42057292 -9.13802083 16.65364583 -9.30078125 13.88671875 C-9.86866677 10.891231 -10.31658152 9.8952337 -12.8125 8.1875 C-15.51598746 7.63154088 -18.0914747 7.75577156 -20.8125 8.1875 C-22.98726401 9.73088091 -23.63082637 10.82415273 -24.8125 13.1875 C-24.91871157 15.00917158 -24.96130722 16.8347002 -24.97363281 18.65942383 C-24.98324036 19.80433792 -24.9928479 20.94925201 -25.00274658 22.12886047 C-25.0091214 23.99286751 -25.0091214 23.99286751 -25.015625 25.89453125 C-25.02132507 27.16721359 -25.02702515 28.43989594 -25.03289795 29.75114441 C-25.0423593 32.44879738 -25.04925014 35.1463388 -25.05273438 37.84399414 C-25.0582118 41.29406434 -25.0822232 44.74373841 -25.11070633 48.19368458 C-25.13385968 51.48977006 -25.13578454 54.78587583 -25.140625 58.08203125 C-25.1529718 59.31862991 -25.1653186 60.55522858 -25.17803955 61.82929993 C-25.17503845 62.9836705 -25.17203735 64.13804108 -25.16894531 65.32739258 C-25.17259094 66.34062088 -25.17623657 67.35384918 -25.17999268 68.39778137 C-24.74581374 71.69373019 -23.83747253 73.56322211 -21.8125 76.1875 C-17.20446643 77.38217537 -14.55174625 77.13534925 -9.8125 76.1875 C-9.4825 67.6075 -9.1525 59.0275 -8.8125 50.1875 C-11.1225 50.1875 -13.4325 50.1875 -15.8125 50.1875 C-15.8125 46.5575 -15.8125 42.9275 -15.8125 39.1875 C-8.8825 39.1875 -1.9525 39.1875 5.1875 39.1875 C5.1875 55.3575 5.1875 71.5275 5.1875 88.1875 C1.8875 88.1875 -1.4125 88.1875 -4.8125 88.1875 C-4.8125 86.8675 -4.8125 85.5475 -4.8125 84.1875 C-5.740625 84.826875 -6.66875 85.46625 -7.625 86.125 C-13.74879722 90.08745702 -20.90525865 90.2308414 -27.98046875 88.7265625 C-32.54251314 87.01453701 -35.10819988 84.1280516 -37.8125 80.1875 C-39.46950873 76.02023742 -40.0674114 72.52055999 -40.0871582 68.04956055 C-40.09669022 66.85779709 -40.10622223 65.66603363 -40.11604309 64.43815613 C-40.11513168 63.16305679 -40.11422028 61.88795746 -40.11328125 60.57421875 C-40.11717463 59.23671843 -40.12151061 57.89921933 -40.12626648 56.5617218 C-40.13370784 53.76351916 -40.13345333 50.96544271 -40.12817383 48.16723633 C-40.12239185 44.60330374 -40.13928893 41.03989301 -40.1625185 37.47604656 C-40.17734329 34.71428978 -40.17811559 31.95265601 -40.17500877 29.19086647 C-40.17576345 27.24511546 -40.18956899 25.29938339 -40.20368958 23.35368347 C-40.1610942 15.13918049 -39.79160524 7.89125246 -34.5 1.3125 C-24.10899821 -6.90364095 -10.99941589 -7.08851247 0 0 Z " fill="#0F0F11" transform="translate(764.8125,466.8125)"/>
<path d="M0 0 C3.47822926 3.30855954 5.76997192 7.11954117 6.15942383 11.99633789 C6.19636076 14.27160235 6.17458068 16.53750975 6.125 18.8125 C6.11597656 19.60076172 6.10695313 20.38902344 6.09765625 21.20117188 C6.07422504 23.13424666 6.03835838 25.0671638 6 27 C1.38 27 -3.24 27 -8 27 C-8.34179688 21.67773438 -8.34179688 21.67773438 -8.68359375 16.35546875 C-8.87184547 13.00818107 -8.87184547 13.00818107 -10 10 C-13.12706959 8.4364652 -16.57982443 8.60041513 -20 9 C-23.24849977 10.72226496 -23.24849977 10.72226496 -24 14 C-24.09864416 15.93168288 -24.13824325 17.86659405 -24.14526367 19.80078125 C-24.15164352 20.9921167 -24.15802338 22.18345215 -24.16459656 23.41088867 C-24.16570938 24.69842041 -24.1668222 25.98595215 -24.16796875 27.3125 C-24.1711822 28.6462406 -24.17454634 29.97998085 -24.17805481 31.3137207 C-24.18404021 34.10791847 -24.18589525 36.90208533 -24.18530273 39.69628906 C-24.185201 43.27759315 -24.19886745 46.85869949 -24.21607494 50.43995667 C-24.22718838 53.19373486 -24.22922217 55.9474651 -24.22869301 58.70126343 C-24.23044765 60.66389431 -24.24129007 62.62651023 -24.25224304 64.58911133 C-24.24916641 65.78044678 -24.24608978 66.97178223 -24.24291992 68.19921875 C-24.24434494 69.24940186 -24.24576996 70.29958496 -24.24723816 71.3815918 C-24.18665871 74.23354118 -24.18665871 74.23354118 -22 77 C-16.55343438 78.2814178 -16.55343438 78.2814178 -11.2890625 76.92578125 C-8.69954743 75.14136336 -8.69954743 75.14136336 -8.29296875 71.86328125 C-8.25816406 70.69152344 -8.22335937 69.51976562 -8.1875 68.3125 C-8.125625 66.229375 -8.06375 64.14625 -8 62 C-3.38 62 1.24 62 6 62 C6.44576117 77.60164084 6.44576117 77.60164084 3 83 C-2.85610851 88.85610851 -8.2307768 90.28731168 -16.375 90.3125 C-28.43882819 90.1114362 -28.43882819 90.1114362 -33.515625 85.67578125 C-38.06936484 80.69022126 -39.24611362 75.34328466 -39.2746582 68.77026367 C-39.28419022 67.55847946 -39.29372223 66.34669525 -39.30354309 65.09819031 C-39.30263168 63.80121719 -39.30172028 62.50424408 -39.30078125 61.16796875 C-39.30467444 59.8080482 -39.30901039 58.44812886 -39.31376648 57.08821106 C-39.32120847 54.24293064 -39.32095284 51.39777433 -39.31567383 48.55249023 C-39.30989157 44.92802689 -39.32678934 41.30407664 -39.3500185 37.67969799 C-39.36484091 34.87161855 -39.36561591 32.06366012 -39.36250877 29.25554848 C-39.36326367 27.27655913 -39.37707111 25.29758842 -39.39118958 23.31864929 C-39.34871671 14.99125477 -39.21416296 7.43840688 -33.3125 1.125 C-22.60422004 -5.74446261 -11.38178774 -5.90166772 0 0 Z " fill="#0C0C0F" transform="translate(426,466)"/>
<path d="M0 0 C12.54 0 25.08 0 38 0 C38.495 5.94 38.495 5.94 39 12 C30.42 12 21.84 12 13 12 C13 20.58 13 29.16 13 38 C20.59 38 28.18 38 36 38 C36 41.96 36 45.92 36 50 C28.41 50 20.82 50 13 50 C13 59.9 13 69.8 13 80 C21.58 80 30.16 80 39 80 C39 83.63 39 87.26 39 91 C26.13 91 13.26 91 0 91 C0 60.97 0 30.94 0 0 Z " fill="#0C0C0F" transform="translate(338,463)"/>
<path d="M0 0 C4.95 0 9.9 0 15 0 C19 12 23 24 27 36 C27.29769287 34.9805127 27.59538574 33.96102539 27.90209961 32.91064453 C29.00532614 29.13436604 30.11104687 25.35882174 31.2175293 21.58349609 C31.6964026 19.94827935 32.17459596 18.31286332 32.65209961 16.67724609 C33.3378999 14.32857595 34.02612879 11.98062937 34.71484375 9.6328125 C34.92842026 8.89942657 35.14199677 8.16604065 35.36204529 7.41043091 C36.88612829 2.22774341 36.88612829 2.22774341 38 0 C42.95 0 47.9 0 53 0 C51.87509127 7.87436114 51.87509127 7.87436114 50.43359375 11.58666992 C50.11656494 12.41410202 49.79953613 13.24153412 49.47290039 14.09403992 C49.13121826 14.96406143 48.78953613 15.83408295 48.4375 16.73046875 C47.91047485 18.09973259 47.91047485 18.09973259 47.37280273 19.49665833 C46.25543479 22.39632801 45.128221 25.29203788 44 28.1875 C42.87353884 31.09431811 41.74917581 34.00192546 40.62719727 36.91047668 C39.93016374 38.71574517 39.23024102 40.51990141 38.52709961 42.32279968 C38.2100708 43.1407753 37.89304199 43.95875092 37.56640625 44.80151367 C37.28740479 45.51764328 37.00840332 46.23377289 36.72094727 46.97160339 C35.51403727 50.36726387 34.87657276 53.43079848 34.79467773 57.03417969 C34.77473251 57.81468689 34.75478729 58.59519409 34.73423767 59.39935303 C34.70916893 60.6480014 34.70916893 60.6480014 34.68359375 61.921875 C34.66281265 62.78186096 34.64203156 63.64184692 34.62062073 64.52789307 C34.55536261 67.26851598 34.49635083 70.00923275 34.4375 72.75 C34.39429219 74.6106867 34.35067718 76.47136398 34.30664062 78.33203125 C34.19970558 82.88792523 34.09837149 87.4439134 34 92 C29.05 92 24.1 92 19 92 C19.04825928 90.96746094 19.09651855 89.93492187 19.14624023 88.87109375 C20.24075431 61.56002143 15.76578448 39.99003803 4.70166016 15.04296875 C0 4.2210239 0 4.2210239 0 0 Z " fill="#0C0C0E" transform="translate(774,463)"/>
<path d="M0 0 C1.09975047 18.87904968 1.09975047 18.87904968 -4.00390625 24.94921875 C-4.66261719 25.62597656 -5.32132813 26.30273438 -6 27 C-7.09634766 28.24716797 -7.09634766 28.24716797 -8.21484375 29.51953125 C-15.44995054 37.31204226 -23.90322244 43.21406275 -32.58105469 49.29101562 C-36.63805126 52.15728288 -40.63078856 55.10967287 -44.625 58.0625 C-45.40738037 58.63935547 -46.18976074 59.21621094 -46.99584961 59.81054688 C-53.06015693 64.28779734 -59.09363208 68.80568111 -65.10205078 73.35766602 C-70.72714948 77.60328671 -73.97547398 78.92877472 -81 78 C-90.80539315 74.67689564 -96.7493407 68.83689944 -101.375 59.75 C-103.74034764 54.76632636 -105.13975425 50.97771927 -105.125 45.4375 C-105.12757813 44.46683594 -105.13015625 43.49617188 -105.1328125 42.49609375 C-105 40 -105 40 -104 38 C-102.68 38.33 -101.36 38.66 -100 39 C-100.04640625 39.76183594 -100.0928125 40.52367187 -100.140625 41.30859375 C-100.3951419 48.58959513 -99.63248893 53.6809828 -96 60 C-95.4225 61.051875 -94.845 62.10375 -94.25 63.1875 C-90.93122654 67.33596683 -86.76447714 70.61776143 -82 73 C-78.00518404 73.401024 -74.28217123 73.48081421 -70.5 72.0625 C-68.04362462 68.68498385 -67.67786593 65.11160217 -68 61 C-68.87938319 57.9546452 -69.90985701 54.97576295 -71 52 C-61.22672834 44.30926716 -51.37723718 36.74863484 -41.33862305 29.40722656 C-35.16904538 24.88610558 -29.07500764 20.27224585 -23 15.625 C-11.39962153 6.76380495 -11.39962153 6.76380495 -6.3125 3 C-5.50425781 2.401875 -4.69601562 1.80375 -3.86328125 1.1875 C-2 0 -2 0 0 0 Z " fill="#0C0C0F" transform="translate(950,460)"/>
<path d="M0 0 C15.84 0 31.68 0 48 0 C48 3.96 48 7.92 48 12 C42.39 12 36.78 12 31 12 C31 38.07 31 64.14 31 91 C26.38 91 21.76 91 17 91 C17 64.93 17 38.86 17 12 C11.39 12 5.78 12 0 12 C0 8.04 0 4.08 0 0 Z " fill="#0E0E10" transform="translate(281,463)"/>
<path d="M0 0 C4.62 0 9.24 0 14 0 C14 26.4 14 52.8 14 80 C22.25 80 30.5 80 39 80 C39 83.63 39 87.26 39 91 C26.13 91 13.26 91 0 91 C0 60.97 0 30.94 0 0 Z " fill="#0C0C0F" transform="translate(620,463)"/>
<path d="M0 0 C2.08984375 0.47265625 2.08984375 0.47265625 4.58984375 2.41015625 C7.98457949 9.34107505 7.24903181 17.81458908 7.2578125 25.38671875 C7.2611409 26.40059662 7.2644693 27.41447449 7.26789856 28.45907593 C7.2729318 30.58859812 7.27530801 32.71812811 7.27514648 34.84765625 C7.27734208 38.09518365 7.29556109 41.34237586 7.31445312 44.58984375 C7.31738604 46.6679676 7.31937152 48.74609305 7.3203125 50.82421875 C7.32749802 51.78792389 7.33468353 52.75162903 7.34208679 53.74453735 C7.32422449 59.03592915 6.98253932 63.50561256 5.08984375 68.47265625 C2.38649928 70.80053621 0.60805319 71.39708404 -2.91015625 71.91015625 C-6.63429318 71.36705295 -8.23869701 70.06778808 -10.91015625 67.47265625 C-12.2350173 64.82293414 -12.06655718 62.78448794 -12.10302734 59.81713867 C-12.11909027 58.63218307 -12.1351532 57.44722748 -12.15170288 56.22636414 C-12.19605588 50.80479393 -12.23765715 45.38336949 -12.26025391 39.96166992 C-12.27359002 37.09903992 -12.30143504 34.23712334 -12.34228516 31.37475586 C-12.4010799 27.25492303 -12.41891305 23.13585547 -12.43359375 19.015625 C-12.46759781 17.09510567 -12.46759781 17.09510567 -12.50228882 15.13578796 C-12.47871988 5.25836112 -12.47871988 5.25836112 -9.5222168 2.16772461 C-6.05568504 -0.08184358 -4.02660155 -0.26129361 0 0 Z " fill="#FDFDFD" transform="translate(587.91015625,473.52734375)"/>
<path d="M0 0 C0.75539063 0.0103125 1.51078125 0.020625 2.2890625 0.03125 C4.86578964 0.61028981 5.76632127 1.43309157 7.375 3.5 C8.42056467 6.63669402 8.52041528 8.88392731 8.55200195 12.17724609 C8.56483719 13.34210541 8.57767242 14.50696472 8.59089661 15.7071228 C8.59828354 16.96650665 8.60567047 18.2258905 8.61328125 19.5234375 C8.621353 20.81690094 8.62942474 22.11036438 8.63774109 23.44302368 C8.65275213 26.18174101 8.66259825 28.92043254 8.67016602 31.65917969 C8.68123393 35.16202125 8.71564435 38.66422816 8.75533772 42.16684532 C8.78780992 45.51485057 8.79228248 48.86278693 8.80078125 52.2109375 C8.81828934 53.46627289 8.83579742 54.72160828 8.85383606 56.01498413 C8.85091049 57.18614777 8.84798492 58.3573114 8.8449707 59.56396484 C8.85377007 61.10593033 8.85377007 61.10593033 8.86274719 62.67904663 C8.24667048 66.24221151 6.84860662 67.91323055 4.375 70.5 C1.5951184 71.8899408 -0.5436326 71.68488204 -3.625 71.5 C-6.17892293 70.64869236 -7.26669549 70.06214728 -8.71522522 67.78953552 C-9.84421811 64.94831658 -9.90017527 62.67484985 -9.93139648 59.61743164 C-9.94738388 58.43262711 -9.96337128 57.24782257 -9.97984314 56.02711487 C-9.98520584 54.75101852 -9.99056854 53.47492218 -9.99609375 52.16015625 C-10.00512222 50.84591171 -10.0141507 49.53166718 -10.02345276 48.17759705 C-10.03992147 45.39775133 -10.04763917 42.61802576 -10.05053711 39.83813477 C-10.05592438 36.28243626 -10.09362479 32.727872 -10.13928127 29.17249393 C-10.1762364 25.77255304 -10.1775665 22.37279118 -10.18359375 18.97265625 C-10.20312607 17.69858414 -10.22265839 16.42451202 -10.24278259 15.11183167 C-10.19254009 5.29139892 -10.19254009 5.29139892 -7.23706055 2.19506836 C-4.51198307 0.42665889 -3.20875378 -0.13231974 0 0 Z " fill="#FDFEFE" transform="translate(691.625,473.5)"/>
<path d="M0 0 C4.62 0 9.24 0 14 0 C14 30.03 14 60.06 14 91 C9.38 91 4.76 91 0 91 C0 77.47 0 63.94 0 50 C-6.6 50 -13.2 50 -20 50 C-20 63.53 -20 77.06 -20 91 C-21.98 91 -23.96 91 -26 91 C-24.02 90.505 -24.02 90.505 -22 90 C-22.00785522 88.24357178 -22.00785522 88.24357178 -22.01586914 86.45166016 C-22.03393758 82.11686972 -22.04543879 77.78208263 -22.05493164 73.44726562 C-22.05996763 71.56933025 -22.06679671 69.6913988 -22.07543945 67.81347656 C-22.08753713 65.11782868 -22.09323557 62.42223253 -22.09765625 59.7265625 C-22.10281754 58.88380768 -22.10797882 58.04105286 -22.11329651 57.17276001 C-22.11387171 51.22774341 -22.11387171 51.22774341 -21 49 C-13.41 49 -5.82 49 2 49 C2 62.2 2 75.4 2 89 C5.3 89 8.6 89 12 89 C12 60.29 12 31.58 12 2 C8.7 2 5.4 2 2 2 C2.00523682 3.08007324 2.01047363 4.16014648 2.01586914 5.27294922 C2.03394108 9.27228978 2.04544007 13.27162672 2.05493164 17.27099609 C2.05996682 19.00342414 2.06679532 20.73584792 2.07543945 22.46826172 C2.08754065 24.95541433 2.09323638 27.44251087 2.09765625 29.9296875 C2.10281754 30.70682098 2.10797882 31.48395447 2.11329651 32.28463745 C2.11387171 37.77225659 2.11387171 37.77225659 1 40 C-2.45826342 40.05789006 -5.91640293 40.09355821 -9.375 40.125 C-10.35984375 40.14175781 -11.3446875 40.15851563 -12.359375 40.17578125 C-13.30039062 40.18222656 -14.24140625 40.18867188 -15.2109375 40.1953125 C-16.51490479 40.21102295 -16.51490479 40.21102295 -17.84521484 40.22705078 C-20 40 -20 40 -22 38 C-22.24543141 35.35212211 -22.37349386 32.80096177 -22.4140625 30.1484375 C-22.43342865 29.37440582 -22.4527948 28.60037415 -22.4727478 27.80288696 C-22.5325983 25.32703725 -22.57895011 22.85114117 -22.625 20.375 C-22.66317482 18.69789623 -22.70222625 17.02081216 -22.7421875 15.34375 C-22.83830409 11.22932647 -22.92231439 7.11481114 -23 3 C-25.64 3 -28.28 3 -31 3 C-31 28.41 -31 53.82 -31 80 C-31.66 80 -32.32 80 -33 80 C-33 53.93 -33 27.86 -33 1 C-28.71 1 -24.42 1 -20 1 C-20 13.21 -20 25.42 -20 38 C-13.4 38 -6.8 38 0 38 C0 25.46 0 12.92 0 0 Z " fill="#020203" transform="translate(476,463)"/>
<path d="M0 0 C0 10.23 0 20.46 0 31 C-4.18780538 33.09390269 -6.1147629 33.24382711 -10.6875 33.1875 C-12.42580078 33.17783203 -12.42580078 33.17783203 -14.19921875 33.16796875 C-17 33 -17 33 -18 32 C-18.020625 30.9275 -18.04125 29.855 -18.0625 28.75 C-18.57143801 25.01850622 -18.57143801 25.01850622 -20.80859375 23.671875 C-22.26797733 22.89145597 -23.72761237 22.11150697 -25.1875 21.33203125 C-27 20 -27 20 -28 16.1875 C-28 15.135625 -28 14.08375 -28 13 C-27.360625 12.835 -26.72125 12.67 -26.0625 12.5 C-23.83880759 11.218214 -23.83880759 11.218214 -23.51171875 9.0859375 C-23.2724022 7.06424845 -23.13106972 5.03158061 -23 3 C-15.32673788 0.8685383 -7.96537286 0 0 0 Z " fill="#0C0C0F" transform="translate(948,524)"/>
<path d="M0 0 C12.54 0 25.08 0 38 0 C38.495 5.94 38.495 5.94 39 12 C30.42 12 21.84 12 13 12 C13 20.58 13 29.16 13 38 C20.59 38 28.18 38 36 38 C36 41.96 36 45.92 36 50 C28.41 50 20.82 50 13 50 C13 59.9 13 69.8 13 80 C21.58 80 30.16 80 39 80 C39 83.63 39 87.26 39 91 C26.13 91 13.26 91 0 91 C0 60.97 0 30.94 0 0 Z M2 2 C2 30.71 2 59.42 2 89 C13.88 89 25.76 89 38 89 C37.505 85.535 37.505 85.535 37 82 C24.13 81.505 24.13 81.505 11 81 C11 70.44 11 59.88 11 49 C18.59 48.67 26.18 48.34 34 48 C34.33 45.36 34.66 42.72 35 40 C27.74 39.67 20.48 39.34 13 39 C11.65893595 36.3178719 11.78549581 34.11601968 11.68359375 31.1171875 C11.62075195 29.36728516 11.62075195 29.36728516 11.55664062 27.58203125 C11.51732422 26.35871094 11.47800781 25.13539063 11.4375 23.875 C11.39431641 22.64394531 11.35113281 21.41289062 11.30664062 20.14453125 C11.20031377 17.09649488 11.09963028 14.04826261 11 11 C23.375 10.505 23.375 10.505 36 10 C36 7.36 36 4.72 36 2 C24.78 2 13.56 2 2 2 Z " fill="#010101" transform="translate(338,463)"/>
<path d="M0 0 C4.62 0 9.24 0 14 0 C14 26.4 14 52.8 14 80 C22.25 80 30.5 80 39 80 C39 83.63 39 87.26 39 91 C26.13 91 13.26 91 0 91 C0 60.97 0 30.94 0 0 Z M2 2 C1.97687731 13.19573244 1.95908529 24.39145924 1.94818783 35.58721066 C1.94295884 40.78528115 1.9358609 45.98333536 1.92456055 51.18139648 C1.91373224 56.19342268 1.90772329 61.20543318 1.90512276 66.21747017 C1.90326841 68.13412282 1.8996476 70.05077457 1.89426994 71.96742058 C1.88706025 74.64228072 1.88600903 77.31707514 1.88647461 79.99194336 C1.88287933 80.7925116 1.87928406 81.59307983 1.87557983 82.41790771 C1.54576179 86.00509902 1.54576179 86.00509902 3 89 C5.44830426 89.08843793 7.86820599 89.11528752 10.31640625 89.09765625 C11.41298805 89.09553383 11.41298805 89.09553383 12.53172302 89.09336853 C14.87535632 89.08775408 17.21889539 89.07519922 19.5625 89.0625 C21.14778508 89.05748686 22.73307166 89.05292363 24.31835938 89.04882812 C28.2122761 89.03777997 32.10612205 89.02050572 36 89 C36 86.69 36 84.38 36 82 C35.3387915 81.97494385 34.67758301 81.9498877 33.99633789 81.92407227 C31.01817695 81.80846898 28.0403608 81.68558246 25.0625 81.5625 C24.02158203 81.52318359 22.98066406 81.48386719 21.90820312 81.44335938 C20.91884766 81.40146484 19.92949219 81.35957031 18.91015625 81.31640625 C17.99371338 81.27974854 17.07727051 81.24309082 16.13305664 81.20532227 C14 81 14 81 13 80 C12.87507611 77.56700213 12.81398493 75.16095077 12.79467773 72.72631836 C12.78477814 71.96539383 12.77487854 71.2044693 12.76467896 70.42048645 C12.73297376 67.8936377 12.7082711 65.36677012 12.68359375 62.83984375 C12.66303199 61.09248859 12.64203574 59.34513849 12.62062073 57.59779358 C12.56531959 52.98973682 12.51594592 48.38163459 12.46777344 43.77349854 C12.41761697 39.07486911 12.36190042 34.37630606 12.30664062 29.67773438 C12.19896076 20.45187956 12.09753777 11.22596722 12 2 C8.7 2 5.4 2 2 2 Z " fill="#010101" transform="translate(620,463)"/>
<path d="M0 0 C5.94 0 11.88 0 18 0 C21.125 8.5 21.125 8.5 20 13 C18.68 9.7 17.36 6.4 16 3 C11.71 3 7.42 3 3 3 C3 31.38 3 59.76 3 89 C5.64 89.33 8.28 89.66 11 90 C11 68.55 11 47.1 11 25 C11.66 24.67 12.32 24.34 13 24 C13 46.44 13 68.88 13 92 C8.71 92 4.42 92 0 92 C0 61.64 0 31.28 0 0 Z " fill="#000000" transform="translate(501,463)"/>
<path d="M0 0 C3.96 0 7.92 0 12 0 C12 30.36 12 60.72 12 92 C7.05 92 2.1 92 -3 92 C-6 84.375 -6 84.375 -6 81 C-5.34 81 -4.68 81 -4 81 C-2.50178941 84.37097383 -2 86.20442119 -2 90 C3.445 89.505 3.445 89.505 9 89 C9.33 60.29 9.66 31.58 10 2 C7.36 2 4.72 2 2 2 C2 21.14 2 40.28 2 60 C1.01 60.495 1.01 60.495 0 61 C0 40.87 0 20.74 0 0 Z " fill="#000000" transform="translate(538,463)"/>
<path d="M0 0 C0.66 0.33 1.32 0.66 2 1 C0.02 3.97 0.02 3.97 -2 7 C39.25 7 80.5 7 123 7 C123.33 6.34 123.66 5.68 124 5 C124.99 6.32 125.98 7.64 127 9 C83.11 9 39.22 9 -6 9 C-2 2 -2 2 0 0 Z " fill="#F80000" transform="translate(87,545)"/>
<path d="M0 0 C1.32 0.99 2.64 1.98 4 3 C3.33333333 4.33333333 2.66666667 5.66666667 2 7 C1.90711318 9.50236916 1.87417588 11.97662686 1.88647461 14.47900391 C1.88632858 15.24982803 1.88618256 16.02065216 1.8860321 16.81483459 C1.88673011 19.36877229 1.89451725 21.92263751 1.90234375 24.4765625 C1.90420833 26.24490316 1.90563204 28.01324433 1.90663147 29.78158569 C1.9104535 34.44064759 1.92028112 39.09967842 1.93133545 43.75872803 C1.94155631 48.51102274 1.94613054 53.26332247 1.95117188 58.015625 C1.96190366 67.34376367 1.97897633 76.67187925 2 86 C3.30324219 85.98259766 3.30324219 85.98259766 4.6328125 85.96484375 C5.78523437 85.95582031 6.93765625 85.94679688 8.125 85.9375 C9.26195312 85.92589844 10.39890625 85.91429687 11.5703125 85.90234375 C15 86 15 86 21 87 C21 82.05 21 77.1 21 72 C23.475 71.505 23.475 71.505 26 71 C26.33 72.32 26.66 73.64 27 75 C25.515 74.01 25.515 74.01 24 73 C23.67 77.95 23.34 82.9 23 88 C15.41 88 7.82 88 0 88 C0 58.96 0 29.92 0 0 Z " fill="#F90100" transform="translate(168,433)"/>
<path d="M0 0 C0.66 0 1.32 0 2 0 C2 33.99 2 67.98 2 103 C-11.5 103 -11.5 103 -18 102 C-18 101.67 -18 101.34 -18 101 C-12.06 101 -6.12 101 0 101 C0 67.67 0 34.34 0 0 Z " fill="#F50100" transform="translate(265,451)"/>
<path d="M0 0 C0.33 0 0.66 0 1 0 C1.33 20.79 1.66 41.58 2 63 C2.66 63 3.32 63 4 63 C4.2784375 64.1446875 4.2784375 64.1446875 4.5625 65.3125 C6.14615265 68.27324191 7.39876367 69.20284702 10.515625 70.375 C16.23221747 71.81313647 22.14911618 72.35994192 28 73 C27.67 73.66 27.34 74.32 27 75 C10.24469976 75.68962364 10.24469976 75.68962364 4.4765625 70.67578125 C-0.0198489 65.72453055 -1.25192805 60.44106227 -1.24291992 53.91870117 C-1.24599655 52.74115768 -1.24907318 51.5636142 -1.25224304 50.35038757 C-1.24505753 49.09393936 -1.23787201 47.83749115 -1.23046875 46.54296875 C-1.23001053 45.24426346 -1.22955231 43.94555817 -1.2290802 42.60749817 C-1.22752201 39.86986885 -1.21927917 37.13237153 -1.20581055 34.39477539 C-1.18873739 30.87954547 -1.18499895 27.36445916 -1.18575573 23.84919262 C-1.1854194 20.4970986 -1.17659143 17.14505213 -1.16796875 13.79296875 C-1.16685593 12.52639938 -1.1657431 11.25983002 -1.16459656 9.95487976 C-1.15821671 8.79309708 -1.15183685 7.63131439 -1.14526367 6.43432617 C-1.13954597 4.89260994 -1.13954597 4.89260994 -1.13371277 3.31974792 C-1 1 -1 1 0 0 Z " fill="#000000" transform="translate(388,481)"/>
<path d="M0 0 C0.66 0 1.32 0 2 0 C2.86591983 4.55455339 3.18670737 8.95383455 3.31640625 13.5859375 C3.33718735 14.28772125 3.35796844 14.989505 3.37937927 15.71255493 C3.44426324 17.93327958 3.5034723 20.15411276 3.5625 22.375 C3.60574354 23.88933371 3.6493596 25.40365683 3.69335938 26.91796875 C3.79988086 30.61186655 3.90131677 34.30588354 4 38 C8.65052872 38.26932521 8.65052872 38.26932521 13 37 C13.33 26.44 13.66 15.88 14 5 C14.33 5 14.66 5 15 5 C15 16.88 15 28.76 15 41 C10.05 41 5.1 41 0 41 C0 27.47 0 13.94 0 0 Z " fill="#1E1E1F" transform="translate(793,514)"/>
<path d="M0 0 C3.0625 2 3.0625 2 5 5 C5.39435378 7.80717625 5.24217646 10.14231773 5 13 C4.67 13 4.34 13 4 13 C3.80664062 12.36191406 3.61328125 11.72382813 3.4140625 11.06640625 C3.02347656 9.82697266 3.02347656 9.82697266 2.625 8.5625 C2.36976563 7.73878906 2.11453125 6.91507812 1.8515625 6.06640625 C1.19117773 3.82201984 1.19117773 3.82201984 -1 3 C-6.2962469 2.43639251 -6.2962469 2.43639251 -10.9375 4.375 C-13.07162725 7.63895932 -13.12180586 9.75124525 -13.11352539 13.64306641 C-13.11344986 14.82413971 -13.11337433 16.00521301 -13.11329651 17.22207642 C-13.10813522 18.50230682 -13.10297394 19.78253723 -13.09765625 21.1015625 C-13.0962413 22.40829926 -13.09482635 23.71503601 -13.09336853 25.06137085 C-13.08954894 28.53676258 -13.07972342 32.01211257 -13.06866455 35.48748779 C-13.05843843 39.03331945 -13.05386833 42.57915785 -13.04882812 46.125 C-13.03810066 53.08335049 -13.02103092 60.04167324 -13 67 C-13.99 66.67 -14.98 66.34 -16 66 C-16.06966439 58.67181144 -16.12289432 51.34369488 -16.15543652 44.01524162 C-16.17105917 40.61192969 -16.19223435 37.20884515 -16.22631836 33.80566406 C-16.26530034 29.88870003 -16.2797374 25.97182649 -16.29296875 22.0546875 C-16.30845261 20.83884979 -16.32393646 19.62301208 -16.33988953 18.37033081 C-16.34126146 11.46365224 -16.06971992 6.54198453 -11.375 1.125 C-7.60774824 -0.65948768 -4.07826563 -0.75469684 0 0 Z " fill="#020202" transform="translate(753,472)"/>
<path d="M0 0 C2.4375 1.625 2.4375 1.625 3.1171875 3.3671875 C3.50999246 6.13598345 3.29772364 8.59624607 3 11.375 C2.89816406 12.35984375 2.79632812 13.3446875 2.69140625 14.359375 C2.60761719 15.10703125 2.52382813 15.8546875 2.4375 16.625 C-2.06765188 16.08965288 -4.75750166 14.36551417 -8.375 11.6875 C-9.35082031 10.97722656 -10.32664062 10.26695312 -11.33203125 9.53515625 C-12.06808594 8.90480469 -12.80414062 8.27445312 -13.5625 7.625 C-13.5625 6.965 -13.5625 6.305 -13.5625 5.625 C-9.3531278 2.26415737 -5.47288711 -0.57609338 0 0 Z " fill="#060606" transform="translate(839.5625,493.375)"/>
<path d="M0 0 C1.23556641 0.01740234 1.23556641 0.01740234 2.49609375 0.03515625 C3.32238281 0.04417969 4.14867187 0.05320312 5 0.0625 C5.63808594 0.07410156 6.27617188 0.08570313 6.93359375 0.09765625 C7.12745867 2.74316681 7.31397642 5.38883408 7.49609375 8.03515625 C7.55216797 8.78990234 7.60824219 9.54464844 7.66601562 10.32226562 C7.79535532 12.24511583 7.86876287 14.17155173 7.93359375 16.09765625 C6.93359375 17.09765625 6.93359375 17.09765625 4.8671875 17.1953125 C4.04347656 17.18371094 3.21976563 17.17210937 2.37109375 17.16015625 C1.54480469 17.15113281 0.71851563 17.14210938 -0.1328125 17.1328125 C-1.08994141 17.11541016 -1.08994141 17.11541016 -2.06640625 17.09765625 C-2.26027117 14.45214569 -2.44678892 11.80647842 -2.62890625 9.16015625 C-2.68498047 8.40541016 -2.74105469 7.65066406 -2.79882812 6.87304688 C-2.92816782 4.95019667 -3.00157537 3.02376077 -3.06640625 1.09765625 C-2.06640625 0.09765625 -2.06640625 0.09765625 0 0 Z " fill="#0A090B" transform="translate(910.06640625,527.90234375)"/>
<path d="M0 0 C7.24101736 -0.61364554 7.24101736 -0.61364554 10.9375 2.375 C13.87940328 6.11924053 14.13009395 7.89217885 14.16113281 12.59545898 C14.17074036 13.76684921 14.1803479 14.93823944 14.19024658 16.14512634 C14.19449646 17.41594559 14.19874634 18.68676483 14.203125 19.99609375 C14.20882507 21.29571548 14.21452515 22.59533722 14.22039795 23.93434143 C14.23090553 26.68743278 14.23674997 29.44049494 14.24023438 32.19360352 C14.24572293 35.72233633 14.26975906 39.250684 14.29820633 42.77929592 C14.32130052 46.14322158 14.32327997 49.50709287 14.328125 52.87109375 C14.3404718 54.13988876 14.3528186 55.40868378 14.36553955 56.71592712 C14.36253845 57.89046951 14.35953735 59.0650119 14.35644531 60.27514648 C14.36009094 61.3105809 14.36373657 62.34601532 14.36749268 63.41282654 C13.95148723 66.34153324 13.30205778 67.22063799 11 69 C11.00666183 68.24689041 11.01332367 67.49378082 11.02018738 66.71784973 C11.08036296 59.61153931 11.12600706 52.50531754 11.15543652 45.39882374 C11.17107533 41.74550802 11.19228048 38.09240329 11.22631836 34.43920898 C11.25897625 30.91194784 11.27686644 27.38488932 11.28463173 23.85748863 C11.29285133 21.86055692 11.31626061 19.86370642 11.33988953 17.86689758 C11.34011612 16.64600937 11.34034271 15.42512115 11.34057617 14.16723633 C11.34723801 13.09468094 11.35389984 12.02212555 11.36076355 10.91706848 C10.9466398 7.5685391 10.0153806 5.68548474 8 3 C5.74660502 2.1893804 5.74660502 2.1893804 3.3125 2.1875 C2.10013672 2.11595703 2.10013672 2.11595703 0.86328125 2.04296875 C0.24839844 2.02878906 -0.36648438 2.01460938 -1 2 C-0.67 1.34 -0.34 0.68 0 0 Z " fill="#010101" transform="translate(688,472)"/>
<path d="M0 0 C15.51 0 31.02 0 47 0 C47 3.96 47 7.92 47 12 C41.39 12 35.78 12 30 12 C30.33 11.34 30.66 10.68 31 10 C35.62 10 40.24 10 45 10 C45 7.36 45 4.72 45 2 C30.15 2 15.3 2 0 2 C0 1.34 0 0.68 0 0 Z " fill="#000000" transform="translate(282,463)"/>
<path d="M0 0 C0.66 0.33 1.32 0.66 2 1 C2.45703125 3.22265625 2.45703125 3.22265625 2.8125 6.0625 C3.96549106 12.99846185 6.57709524 17.44957394 11.375 22.5 C14.80592326 24.46052758 17.1080023 24.43244419 21 24 C21.99 23.34 22.98 22.68 24 22 C24.33 22.99 24.66 23.98 25 25 C22.89466558 27.59118083 21.60415047 28.85949989 18.3125 29.625 C12.30719849 28.49192424 7.80116115 25.38653853 4.125 20.515625 C-0.06170551 13.71222855 -1.25930148 8.90869528 -1 1 C-0.67 0.67 -0.34 0.34 0 0 Z " fill="#080808" transform="translate(854,501)"/>
<path d="M0 0 C0.66 0.33 1.32 0.66 2 1 C0.02 3.97 0.02 3.97 -2 7 C36.28 7 74.56 7 114 7 C114 7.33 114 7.66 114 8 C74.4 8.33 34.8 8.66 -6 9 C-2 2 -2 2 0 0 Z " fill="#F90B08" transform="translate(87,545)"/>
<path d="M0 0 C0.99 0.33 1.98 0.66 3 1 C2.1850708 1.53971436 1.3701416 2.07942871 0.53051758 2.63549805 C-3.16885259 6.37467182 -2.5680221 10.88978574 -2.56648254 15.86689758 C-2.54067612 17.17539169 -2.51486969 18.4838858 -2.48828125 19.83203125 C-2.47894812 21.1925069 -2.47183436 22.55299942 -2.46684265 23.91349792 C-2.44781131 27.48301117 -2.3987468 31.05149653 -2.34332275 34.62060547 C-2.29204504 38.26711117 -2.26931062 41.91378405 -2.24414062 45.56054688 C-2.19062213 52.7074501 -2.10535818 59.85365771 -2 67 C-2.99 66.67 -3.98 66.34 -5 66 C-5.06965285 58.41105091 -5.12288865 50.82213516 -5.15543652 43.23293877 C-5.17106162 39.70856268 -5.19224144 36.18440606 -5.22631836 32.66015625 C-5.26528952 28.60414579 -5.27973523 24.5483642 -5.29296875 20.4921875 C-5.30845261 19.23260223 -5.32393646 17.97301697 -5.33988953 16.67526245 C-5.34011612 15.49449127 -5.34034271 14.31372009 -5.34057617 13.09716797 C-5.34723801 12.06236298 -5.35389984 11.02755798 -5.36076355 9.96139526 C-4.93142287 6.43707175 -3.81503054 4.03475054 -2 1 C-1.34 0.67 -0.68 0.34 0 0 Z " fill="#000000" transform="translate(579,473)"/>
<path d="M0 0 C0.66 0.33 1.32 0.66 2 1 C1.67 1.99 1.34 2.98 1 4 C3.65553488 7.13922159 6.83165783 8.54731323 10.5 10.3125 C11.7534193 10.92280793 13.00601324 11.53481358 14.2578125 12.1484375 C14.88333008 12.45491211 15.50884766 12.76138672 16.15332031 13.07714844 C20.50635984 15.25251721 24.74421458 17.64206483 29 20 C32.96 17.03 36.92 14.06 41 11 C41 11.99 41 12.98 41 14 C38.59375 16.26171875 38.59375 16.26171875 35.5 18.6875 C34.4790625 19.49574219 33.458125 20.30398438 32.40625 21.13671875 C31.6121875 21.75160156 30.818125 22.36648438 30 23 C25.69857532 21.37204281 21.6142545 19.37165976 17.51171875 17.3046875 C16.80852005 16.95238068 16.10532135 16.60007385 15.3808136 16.23709106 C13.148758 15.11827841 10.91811426 13.99668307 8.6875 12.875 C7.16871235 12.11309672 5.64983311 11.35137599 4.13085938 10.58984375 C0.41950921 8.72867426 -3.2905778 6.86500889 -7 5 C-2.25 1.125 -2.25 1.125 0 0 Z " fill="#030304" transform="translate(847,486)"/>
<path d="M0 0 C0.33 0 0.66 0 1 0 C1.17686123 7.91865961 1.34282321 15.83743977 1.49477577 23.75661278 C1.56567392 27.4335834 1.64036071 31.11039652 1.72363281 34.78710938 C1.80381853 38.3336514 1.87414775 41.8802631 1.93757248 45.4271431 C1.96354715 46.78203183 1.99310612 48.13685663 2.02626419 49.49158859 C2.07200894 51.38530166 2.10396646 53.27933275 2.13525391 55.17333984 C2.16856308 56.79216568 2.16856308 56.79216568 2.20254517 58.44369507 C2 61 2 61 0 63 C-1.76723811 61.23276189 -1.12762833 58.6968116 -1.12939453 56.30273438 C-1.13254669 55.08477173 -1.13569885 53.86680908 -1.13894653 52.61193848 C-1.13715675 51.27254195 -1.1351058 49.93314576 -1.1328125 48.59375 C-1.1334856 47.2299396 -1.13445567 45.86612932 -1.13571167 44.50231934 C-1.13718838 41.64069479 -1.13503497 38.7791014 -1.13037109 35.91748047 C-1.12467381 32.24181386 -1.12795296 28.56622026 -1.13394356 24.89055634 C-1.13754991 22.07337896 -1.13641025 19.25621902 -1.13381577 16.43904114 C-1.1331467 15.08339937 -1.13397421 13.72775604 -1.13629532 12.37211609 C-1.13882301 10.48049956 -1.13429014 8.58887751 -1.12939453 6.69726562 C-1.12859894 5.61884399 -1.12780334 4.54042236 -1.12698364 3.42932129 C-1 1 -1 1 0 0 Z " fill="#000000" transform="translate(669,479)"/>
<path d="M0 0 C7.23080809 -0.47157444 13.86896634 0.9778741 20 4.9375 C23.78214432 8.83783633 24.24856443 11.85889282 24.22705078 17.23730469 C24.22689972 18.49830994 24.22674866 19.75931519 24.22659302 21.05853271 C24.21638056 22.42964842 24.20594858 23.80076251 24.1953125 25.171875 C24.19158057 26.57863158 24.18873445 27.98539077 24.18673706 29.39215088 C24.17911476 33.08786239 24.15947845 36.78341575 24.1373291 40.47906494 C24.11684036 44.25294862 24.10772888 48.02685794 24.09765625 51.80078125 C24.07623112 59.20059279 24.04211226 66.6002742 24 74 C23.67 74 23.34 74 23 74 C22.99120064 72.88912773 22.99120064 72.88912773 22.98222351 71.7558136 C22.92425275 64.76700466 22.85215085 57.77846798 22.76428509 50.78997517 C22.71961054 47.19732735 22.68034838 43.60479216 22.65356445 40.01196289 C22.62750177 36.54284303 22.58707944 33.07415725 22.53681374 29.60530663 C22.51207779 27.64178155 22.50210773 25.67808842 22.49235535 23.71443176 C22.47256119 22.5135643 22.45276703 21.31269684 22.43237305 20.07543945 C22.42126999 19.02064896 22.41016693 17.96585846 22.39872742 16.87910461 C21.94572771 13.60811424 20.79398715 11.7346071 19 9 C19 8.34 19 7.68 19 7 C12.27902129 4.23253818 6.22971736 2.61050947 -1 2 C-0.67 1.34 -0.34 0.68 0 0 Z " fill="#000000" transform="translate(689,462)"/>
<path d="M0 0 C0.66 0 1.32 0 2 0 C3.09724508 18.83604053 3.09724508 18.83604053 -1.94921875 24.90625 C-2.62597656 25.5971875 -3.30273438 26.288125 -4 27 C-4.89332031 27.9590625 -5.78664063 28.918125 -6.70703125 29.90625 C-14.62227606 38.20163922 -14.62227606 38.20163922 -19 40 C-18.44291667 36.38288149 -17.27138983 35.05853793 -14.4375 32.8125 C-6.22389432 26.00427524 -6.22389432 26.00427524 -1 17 C-0.931009 14.93854893 -0.91532273 12.87498599 -0.9375 10.8125 C-0.94652344 9.72582031 -0.95554687 8.63914062 -0.96484375 7.51953125 C-0.97644531 6.68808594 -0.98804688 5.85664063 -1 5 C-1.66 4.67 -2.32 4.34 -3 4 C-1.625 2 -1.625 2 0 0 Z " fill="#060607" transform="translate(948,460)"/>
<path d="M0 0 C0.66 0 1.32 0 2 0 C1.67 1.32 1.34 2.64 1 4 C0.34 4 -0.32 4 -1 4 C-2.52299523 6.93720508 -3.80100302 9.9168649 -5 13 C-5.99 13 -6.98 13 -8 13 C-8.28875 13.5775 -8.5775 14.155 -8.875 14.75 C-9.91666667 16.83333333 -10.95833333 18.91666667 -12 21 C-12.66 21 -13.32 21 -14 21 C-14.268125 21.56203125 -14.53625 22.1240625 -14.8125 22.703125 C-16.0803979 25.15550646 -17.48972342 27.43927683 -19 29.75 C-19.515625 30.54921875 -20.03125 31.3484375 -20.5625 32.171875 C-21.036875 32.77515625 -21.51125 33.3784375 -22 34 C-22.66 34 -23.32 34 -24 34 C-24.2475 34.61875 -24.495 35.2375 -24.75 35.875 C-26.22047178 38.37480203 -27.41403076 38.83316022 -30 40 C-26.06450143 33.63070627 -21.54332287 27.83458718 -16.82958984 22.03662109 C-12.31723435 16.4641759 -8.03068781 10.74067388 -3.83349609 4.92749023 C-2.60201109 3.2499638 -1.30674067 1.61959226 0 0 Z " fill="#F80C09" transform="translate(260,440)"/>
<path d="M0 0 C5.15746981 1.34955009 9.65842621 2.72386884 13.5625 6.4375 C16.74907964 12.11792457 17.26461277 16.40642173 17.125 22.8125 C17.11597656 23.60076172 17.10695313 24.38902344 17.09765625 25.20117188 C17.07422504 27.13424666 17.03835838 29.0671638 17 31 C13.7 30.67 10.4 30.34 7 30 C7 29.67 7 29.34 7 29 C9.64 28.34 12.28 27.68 15 27 C15.38996449 19.8506511 14.6425949 13.32455487 10.0625 7.5625 C5.78512479 4.32206424 2.0784505 3.56572506 -3.25 2.875 C-4.51328125 2.70742188 -5.7765625 2.53984375 -7.078125 2.3671875 C-8.04234375 2.24601562 -9.0065625 2.12484375 -10 2 C-6.43049464 -0.37967024 -4.11497682 -0.60056418 0 0 Z " fill="#060506" transform="translate(415,462)"/>
<path d="M0 0 C0.66 0 1.32 0 2 0 C1.25 4.75 1.25 4.75 -1 7 C-1 8.98 -1 10.96 -1 13 C-5.62 13.33 -10.24 13.66 -15 14 C-12.88464408 9.76928815 -10.657154 7.95323682 -6.9375 5.3125 C-5.84212718 4.51736874 -4.74705948 3.72181693 -3.65234375 2.92578125 C-2.77707031 2.29027344 -1.90179687 1.65476562 -1 1 C-0.67 0.67 -0.34 0.34 0 0 Z " fill="#060606" transform="translate(918,512)"/>
<path d="M0 0 C0.33 0 0.66 0 1 0 C1 12.54 1 25.08 1 38 C-2.3 38 -5.6 38 -9 38 C-9 36.35 -9 34.7 -9 33 C-8.34 33.66 -7.68 34.32 -7 35 C-5.01178687 35.39764263 -3.01055661 35.73775349 -1 36 C-1.00523682 34.94498291 -1.01047363 33.88996582 -1.01586914 32.80297852 C-1.03391901 28.9024337 -1.04543195 25.0018926 -1.05493164 21.10131836 C-1.0599719 19.41055684 -1.06680405 17.71979971 -1.07543945 16.02905273 C-1.08751857 13.60399293 -1.09323123 11.17899056 -1.09765625 8.75390625 C-1.10281754 7.99348526 -1.10797882 7.23306427 -1.11329651 6.44960022 C-1.11349238 4.6326743 -1.06197277 2.81586873 -1 1 C-0.67 0.67 -0.34 0.34 0 0 Z " fill="#010101" transform="translate(769,517)"/>
<path d="M0 0 C2 2 2 2 2.125 4.625 C2.08375 5.40875 2.0425 6.1925 2 7 C2.99 7.33 3.98 7.66 5 8 C5.103125 8.61875 5.20625 9.2375 5.3125 9.875 C5.84907646 12.32859238 5.84907646 12.32859238 8.8125 13.6875 C13.69569463 15.6982272 17.43927441 16.11560726 22.75 16.0625 C23.92046875 16.05347656 25.0909375 16.04445313 26.296875 16.03515625 C27.18890625 16.02355469 28.0809375 16.01195312 29 16 C28.67 16.99 28.34 17.98 28 19 C18.77211999 19.37980604 11.96432872 19.34552588 4.125 14.0625 C1.41499667 11.43220265 0.10062874 9.80437741 -0.11328125 5.96875 C-0.12379136 3.97883613 -0.06629457 1.98883703 0 0 Z " fill="#050505" transform="translate(563,537)"/>
<path d="M0 0 C0.33 1.32 0.66 2.64 1 4 C1.66 4 2.32 4 3 4 C3.2784375 5.1446875 3.2784375 5.1446875 3.5625 6.3125 C5.14615265 9.27324191 6.39876367 10.20284702 9.515625 11.375 C15.23221747 12.81313647 21.14911618 13.35994192 27 14 C26.67 14.66 26.34 15.32 26 16 C9.33812839 16.68577825 9.33812839 16.68577825 3.44140625 11.67578125 C0.3923812 8.38490719 -0.79331271 5.44377675 -1 1 C-0.67 0.67 -0.34 0.34 0 0 Z " fill="#060506" transform="translate(389,540)"/>
<path d="M0 0 C4.95 0 9.9 0 15 0 C15.66 1.98 16.32 3.96 17 6 C16.01 5.67 15.02 5.34 14 5 C13.67 4.34 13.34 3.68 13 3 C10.64400765 2.53248212 10.64400765 2.53248212 7.9375 2.375 C7.01839844 2.30023438 6.09929688 2.22546875 5.15234375 2.1484375 C4.44207031 2.09945313 3.73179687 2.05046875 3 2 C3.63228516 3.77117187 3.63228516 3.77117187 4.27734375 5.578125 C4.83082667 7.13538202 5.3842067 8.6926756 5.9375 10.25 C6.21529297 11.02730469 6.49308594 11.80460937 6.77929688 12.60546875 C7.04677734 13.35957031 7.31425781 14.11367188 7.58984375 14.890625 C7.83597412 15.58188477 8.08210449 16.27314453 8.33569336 16.98535156 C8.99141247 18.97395653 9.51867386 20.96285203 10 23 C7 22 7 22 6.0168457 20.08227539 C5.73929443 19.26235107 5.46174316 18.44242676 5.17578125 17.59765625 C4.86962891 16.70755859 4.56347656 15.81746094 4.24804688 14.90039062 C3.78495117 13.49563477 3.78495117 13.49563477 3.3125 12.0625 C2.99216797 11.12986328 2.67183594 10.19722656 2.34179688 9.23632812 C0 2.33077359 0 2.33077359 0 0 Z " fill="#060606" transform="translate(774,463)"/>
<path d="M0 0 C1.32 0.33 2.64 0.66 4 1 C4 5.29 4 9.58 4 14 C-0.94366102 12.02253559 -2.07854402 11.11167879 -5 7 C-4.175 6.030625 -3.35 5.06125 -2.5 4.0625 C0.10539608 1.52977999 0.10539608 1.52977999 0 0 Z " fill="#101013" transform="translate(836,493)"/>
<path d="M0 0 C1.16294436 2.24282127 2.03587069 4.15065691 2.625 6.625 C3.88785343 9.38949026 3.88785343 9.38949026 7.5625 10.3125 C13.05240177 11.37441531 18.6606391 11.77978697 24 10 C24.33 10.99 24.66 11.98 25 13 C20.42523013 15.28738494 13.73351526 14.58013453 8.828125 13.5390625 C4.1719561 11.78784853 1.61054492 9.07897644 -1 5 C-0.8125 2.125 -0.8125 2.125 0 0 Z " fill="#050506" transform="translate(728,542)"/>
<path d="M0 0 C0.66 0 1.32 0 2 0 C2 10.23 2 20.46 2 31 C0.68 31.33 -0.64 31.66 -2 32 C-1.67 31.34 -1.34 30.68 -1 30 C-0.92635508 27.8331823 -0.91650697 25.66406096 -0.9375 23.49609375 C-0.94910156 21.54993164 -0.94910156 21.54993164 -0.9609375 19.56445312 C-0.9733854 18.18879678 -0.98641338 16.81314557 -1 15.4375 C-1.02648797 12.7486561 -1.04645451 10.06005083 -1.0625 7.37109375 C-1.07410156 6.17411865 -1.08570313 4.97714355 -1.09765625 3.74389648 C-1 1 -1 1 0 0 Z " fill="#000000" transform="translate(946,524)"/>
<path d="M0 0 C3 3 3 3 3.1875 6.6875 C3.125625 7.780625 3.06375 8.87375 3 10 C3.98742187 9.98839844 4.97484375 9.97679687 5.9921875 9.96484375 C7.27351563 9.95582031 8.55484375 9.94679688 9.875 9.9375 C11.15117187 9.92589844 12.42734375 9.91429687 13.7421875 9.90234375 C17 10 17 10 19 11 C18.67 11.99 18.34 12.98 18 14 C17.67 13.67 17.34 13.34 17 13 C14.14122091 12.76298761 11.30116703 12.57780818 8.4375 12.4375 C7.63119141 12.39431641 6.82488281 12.35113281 5.99414062 12.30664062 C3.99631195 12.20024738 1.9981793 12.09959112 0 12 C0 8.04 0 4.08 0 0 Z " fill="#131313" transform="translate(281,463)"/>
<path d="M0 0 C2.97 0 5.94 0 9 0 C9.19386492 2.64551056 9.38038267 5.29117783 9.5625 7.9375 C9.61857422 8.69224609 9.67464844 9.44699219 9.73242188 10.22460938 C9.86176157 12.14745958 9.93516912 14.07389548 10 16 C9 17 9 17 6.93359375 17.09765625 C6.10988281 17.08605469 5.28617188 17.07445312 4.4375 17.0625 C3.61121094 17.05347656 2.78492188 17.04445313 1.93359375 17.03515625 C0.97646484 17.01775391 0.97646484 17.01775391 0 17 C0.33 16.34 0.66 15.68 1 15 C2.98 15 4.96 15 7 15 C6.85915204 13.20793453 6.71216299 11.41635083 6.5625 9.625 C6.48128906 8.62726562 6.40007813 7.62953125 6.31640625 6.6015625 C6.15034374 4.02072387 6.15034374 4.02072387 5 2 C2.47266765 1.34444881 2.47266765 1.34444881 0 1 C0 0.67 0 0.34 0 0 Z " fill="#100F10" transform="translate(908,528)"/>
<path d="M0 0 C-1.49605339 4.3916406 -4.30759117 5.53509995 -8.3125 7.5625 C-13.13689636 10.02208083 -13.13689636 10.02208083 -17.79296875 12.77734375 C-18.52128906 13.18082031 -19.24960937 13.58429688 -20 14 C-20.66 13.67 -21.32 13.34 -22 13 C-18.51363477 9.0207978 -14.44848564 6.7617354 -9.875 4.25 C-9.14667969 3.83878906 -8.41835938 3.42757813 -7.66796875 3.00390625 C-2.2689213 0 -2.2689213 0 0 0 Z " fill="#070708" transform="translate(887,464)"/>
<path d="M0 0 C0.33 0 0.66 0 1 0 C1.72059609 7.39897775 2.12413833 14.75596757 2.1875 22.1875 C2.20039063 22.92991943 2.21328125 23.67233887 2.2265625 24.43725586 C2.23000511 26.293038 2.123445 28.14832493 2 30 C1.34 30.66 0.68 31.32 0 32 C-0.16752496 27.7643915 -0.32809332 23.52859426 -0.48217773 19.29248047 C-0.5355959 17.85100177 -0.59092518 16.40959259 -0.64819336 14.96826172 C-0.73010997 12.89826447 -0.80518359 10.82811573 -0.87890625 8.7578125 C-0.9260376 7.5114502 -0.97316895 6.26508789 -1.02172852 4.98095703 C-1 2 -1 2 0 0 Z " fill="#010102" transform="translate(299,478)"/>
<path d="M0 0 C7.23101978 -0.47158825 13.81856713 1.01160446 20 4.875 C22.14469201 7.15373526 23.09068334 9.02405458 24 12 C22.0625 11.1875 22.0625 11.1875 20 10 C19.67 9.01 19.34 8.02 19 7 C16.75256244 5.84979475 16.75256244 5.84979475 14 5 C13.0925 4.649375 12.185 4.29875 11.25 3.9375 C7.1896688 2.76625061 3.19995518 2.35466288 -1 2 C-0.67 1.34 -0.34 0.68 0 0 Z " fill="#060606" transform="translate(689,462)"/>
<path d="M0 0 C5.94 0 11.88 0 18 0 C18 0.33 18 0.66 18 1 C10.08 1.495 10.08 1.495 2 2 C2 3.98 2 5.96 2 8 C4.31 8.33 6.62 8.66 9 9 C9 11.31 9 13.62 9 16 C8.67 16 8.34 16 8 16 C7.67 14.35 7.34 12.7 7 11 C4.69 10.67 2.38 10.34 0 10 C0 6.7 0 3.4 0 0 Z " fill="#000001" transform="translate(749,507)"/>
<path d="M0 0 C0.99 0.33 1.98 0.66 3 1 C-0.97446188 5.22286575 -5.31839417 8.59350351 -10 12 C-11.3347248 12.99814202 -12.66844813 13.99762911 -14 15 C-14.66 14.67 -15.32 14.34 -16 14 C-13.05530062 10.01223843 -9.8876588 7.11086973 -5.9375 4.125 C-4.89464844 3.32320313 -3.85179687 2.52140625 -2.77734375 1.6953125 C-1.40255859 0.85613281 -1.40255859 0.85613281 0 0 Z " fill="#070708" transform="translate(909,489)"/>
<path d="M0 0 C7.08914729 -0.60077519 7.08914729 -0.60077519 10.9375 1.9375 C13.56580831 5.84013962 14.32738255 9.30751672 14 14 C13.00390625 16.27734375 13.00390625 16.27734375 12 18 C11.86722656 17.24074219 11.73445313 16.48148437 11.59765625 15.69921875 C11.42105469 14.70535156 11.24445313 13.71148437 11.0625 12.6875 C10.88847656 11.70136719 10.71445312 10.71523438 10.53515625 9.69921875 C10.04253153 6.91810787 10.04253153 6.91810787 9 4 C5.7 3.34 2.4 2.68 -1 2 C-0.67 1.34 -0.34 0.68 0 0 Z " fill="#030304" transform="translate(407,472)"/>
<path d="M0 0 C0 0.99 0 1.98 0 3 C-1.65234375 4.62573242 -1.65234375 4.62573242 -3.9375 6.35546875 C-4.74960937 6.97744141 -5.56171875 7.59941406 -6.3984375 8.24023438 C-7.68621094 9.20413086 -7.68621094 9.20413086 -9 10.1875 C-9.85851562 10.84169922 -10.71703125 11.49589844 -11.6015625 12.16992188 C-13.72813122 13.78847696 -15.86098489 15.39795101 -18 17 C-18.66 16.01 -19.32 15.02 -20 14 C-18.98808594 13.44828125 -17.97617187 12.8965625 -16.93359375 12.328125 C-13.04803744 10.10780711 -9.56908246 7.51983781 -6.0625 4.75 C-5.47404297 4.29109375 -4.88558594 3.8321875 -4.27929688 3.359375 C-2.84971658 2.24360502 -1.42439577 1.12238102 0 0 Z " fill="#040404" transform="translate(909,512)"/>
<path d="M0 0 C0.66 0 1.32 0 2 0 C3.03774122 3.07790202 4.05216917 6.16300246 5.0625 9.25 C5.35705078 10.12269531 5.65160156 10.99539063 5.95507812 11.89453125 C6.22900391 12.73886719 6.50292969 13.58320313 6.78515625 14.453125 C7.04176025 15.22817383 7.29836426 16.00322266 7.56274414 16.80175781 C8.04503677 19.22641603 7.7792359 20.67847821 7 23 C0 6.29949239 0 6.29949239 0 0 Z " fill="#050405" transform="translate(790,472)"/>
<path d="M0 0 C5.66036608 0.14118827 10.03914814 0.82540108 14.55859375 4.390625 C17.11947226 7.24992567 17.94661909 10.34414862 19 14 C18.01 13.67 17.02 13.34 16 13 C15.67 11.35 15.34 9.7 15 8 C14.34 8 13.68 8 13 8 C12.57074219 7.55011719 12.14148438 7.10023438 11.69921875 6.63671875 C9.57938109 4.59485213 7.55735353 3.846276 4.8125 2.8125 C3.91144531 2.46832031 3.01039063 2.12414062 2.08203125 1.76953125 C1.39496094 1.51558594 0.70789063 1.26164062 0 1 C0 0.67 0 0.34 0 0 Z " fill="#070708" transform="translate(589,463)"/>
<path d="M0 0 C0.66 0 1.32 0 2 0 C2.86689178 2.57967797 3.71873789 5.16276127 4.5625 7.75 C4.80935547 8.47960937 5.05621094 9.20921875 5.31054688 9.9609375 C5.53935547 10.66992188 5.76816406 11.37890625 6.00390625 12.109375 C6.32597046 13.08342285 6.32597046 13.08342285 6.65454102 14.07714844 C7.06008636 16.33444538 6.69296911 17.83473482 6 20 C1.8180236 13.91712524 0.89777945 7.18223557 0 0 Z " fill="#060607" transform="translate(525,490)"/>
<path d="M0 0 C0.60328125 0.38414062 1.2065625 0.76828125 1.828125 1.1640625 C2.62734375 1.64617187 3.4265625 2.12828125 4.25 2.625 C5.03890625 3.11226563 5.8278125 3.59953125 6.640625 4.1015625 C8.96215617 5.27362432 8.96215617 5.27362432 11.1875 4.25 C13.02204794 2.98479452 14.50272123 1.64700665 16 0 C15.35455571 3.48539917 13.89865603 6.02819057 12 9 C7.69235185 7.43358249 3.93828536 5.31663844 0 3 C0 2.01 0 1.02 0 0 Z " fill="#F70C09" transform="translate(96,464)"/>
<path d="M0 0 C6.93 0 13.86 0 21 0 C21 3.63 21 7.26 21 11 C20.01 11.495 20.01 11.495 19 12 C18.505 7.05 18.505 7.05 18 2 C12.06 1.67 6.12 1.34 0 1 C0 0.67 0 0.34 0 0 Z " fill="#1F1F20" transform="translate(749,506)"/>
<path d="M0 0 C0.66 0.33 1.32 0.66 2 1 C-0.85530714 4.88185804 -3.8132134 7.54737608 -7.75 10.3125 C-8.73484375 11.00988281 -9.7196875 11.70726562 -10.734375 12.42578125 C-11.48203125 12.94527344 -12.2296875 13.46476562 -13 14 C-13.66 13.67 -14.32 13.34 -15 13 C-13.37660195 11.29115995 -11.70680947 9.62553283 -10 8 C-9.34 8 -8.68 8 -8 8 C-8 7.34 -8 6.68 -8 6 C-6.02678947 4.6273318 -4.02456848 3.29572383 -2 2 C-1.34 1.34 -0.68 0.68 0 0 Z " fill="#040304" transform="translate(928,466)"/>
<path d="M0 0 C0 4.00278065 -1.52449993 5.48797589 -3.875 8.6875 C-4.59429687 9.68136719 -5.31359375 10.67523437 -6.0546875 11.69921875 C-7.01761719 12.83810547 -7.01761719 12.83810547 -8 14 C-8.66 14 -9.32 14 -10 14 C-11.98 10.535 -11.98 10.535 -14 7 C-13.01 7 -12.02 7 -11 7 C-10.34 8.32 -9.68 9.64 -9 11 C-8.66226563 10.4946875 -8.32453125 9.989375 -7.9765625 9.46875 C-7.53054687 8.8190625 -7.08453125 8.169375 -6.625 7.5 C-5.96371094 6.52546875 -5.96371094 6.52546875 -5.2890625 5.53125 C-4.86367187 5.0259375 -4.43828125 4.520625 -4 4 C-3.34 4 -2.68 4 -2 4 C-1.34 2.68 -0.68 1.36 0 0 Z " fill="#F70604" transform="translate(224,524)"/>
<path d="M0 0 C3.96 0 7.92 0 12 0 C12 0.33 12 0.66 12 1 C11.071875 1.144375 10.14375 1.28875 9.1875 1.4375 C5.99274889 1.92100111 5.99274889 1.92100111 3 3 C2.67 5.31 2.34 7.62 2 10 C1.34 10 0.68 10 0 10 C0 6.7 0 3.4 0 0 Z " fill="#222123" transform="translate(418,528)"/>
<path d="M0 0 C0.66 0 1.32 0 2 0 C0.47605205 4.20532472 -2.6152865 6.25004166 -6.125 8.75 C-6.96998047 9.36681641 -6.96998047 9.36681641 -7.83203125 9.99609375 C-9.21601634 11.00476085 -10.60730541 12.00339286 -12 13 C-12.66 12.67 -13.32 12.34 -14 12 C-12.61211198 10.69979989 -11.21430742 9.4101807 -9.8125 8.125 C-9.03519531 7.40570313 -8.25789062 6.68640625 -7.45703125 5.9453125 C-5.02310224 4.0182908 -2.92463354 2.98699889 0 2 C0 1.34 0 0.68 0 0 Z " fill="#060606" transform="translate(907,482)"/>
<path d="M0 0 C0.66 0 1.32 0 2 0 C2 5.61 2 11.22 2 17 C1.34 17 0.68 17 0 17 C-0.04898438 16.14535156 -0.09796875 15.29070312 -0.1484375 14.41015625 C-0.22320313 13.30542969 -0.29796875 12.20070313 -0.375 11.0625 C-0.44460938 9.96035156 -0.51421875 8.85820312 -0.5859375 7.72265625 C-0.72257813 6.82417969 -0.85921875 5.92570312 -1 5 C-1.66 4.67 -2.32 4.34 -3 4 C-1.625 2 -1.625 2 0 0 Z " fill="#000001" transform="translate(948,460)"/>
<path d="M0 0 C0.66 0 1.32 0 2 0 C1.49701212 4.40114397 -0.08772731 6.71195019 -3 10 C-4.32 9.01 -5.64 8.02 -7 7 C-4.66666667 4.66666667 -2.33333333 2.33333333 0 0 Z " fill="#141314" transform="translate(918,512)"/>
<path d="M0 0 C5.61 0.33 11.22 0.66 17 1 C17 1.66 17 2.32 17 3 C14.72923158 3.02699725 12.45837179 3.04639453 10.1875 3.0625 C8.29064453 3.07990234 8.29064453 3.07990234 6.35546875 3.09765625 C3 3 3 3 0 2 C0 1.34 0 0.68 0 0 Z " fill="#030303" transform="translate(680,553)"/>
<path d="M0 0 C0 4.29 0 8.58 0 13 C-0.66 13 -1.32 13 -2 13 C-2 9.37 -2 5.74 -2 2 C-4.97 2 -7.94 2 -11 2 C-11 1.67 -11 1.34 -11 1 C-9.54182203 0.83197949 -8.0834516 0.66562857 -6.625 0.5 C-5.81289063 0.4071875 -5.00078125 0.314375 -4.1640625 0.21875 C-2 0 -2 0 0 0 Z " fill="#000000" transform="translate(432,528)"/>
<path d="M0 0 C-2.60542313 3.32915177 -4.9464094 3.37637068 -9 4 C-11.39708501 4.89048339 -13.67392768 5.93000673 -16 7 C-15 4 -15 4 -13.14453125 2.83203125 C-8.59640346 0.84365378 -5.07306962 -0.52031483 0 0 Z " fill="#F80907" transform="translate(116,434)"/>
<path d="M0 0 C0.99 0.33 1.98 0.66 3 1 C3.33 2.98 3.66 4.96 4 7 C6.97 7.33 9.94 7.66 13 8 C13 8.33 13 8.66 13 9 C8.71 9 4.42 9 0 9 C0 6.03 0 3.06 0 0 Z " fill="#3A393A" transform="translate(756,480)"/>
<path d="M0 0 C1 3 1 3 -0.125 5.5 C-2.19701187 8.26268249 -3.86009084 9.58704088 -7 11 C-7.99 10.67 -8.98 10.34 -10 10 C-9.2575 9.62875 -8.515 9.2575 -7.75 8.875 C-4.51812844 6.67145121 -3.01810606 4.31545996 -1 1 C-0.67 0.67 -0.34 0.34 0 0 Z " fill="#050505" transform="translate(605,543)"/>
<path d="M0 0 C0.66 1.32 1.32 2.64 2 4 C0.8553125 4.5878125 0.8553125 4.5878125 -0.3125 5.1875 C-3.25691758 7.17327 -4.27467054 8.96013381 -6 12 C-6.66 12 -7.32 12 -8 12 C-6.49087042 7.01987239 -3.44338151 3.75740058 0 0 Z " fill="#F70B09" transform="translate(229,481)"/>
<path d="M0 0 C1.23593891 3.70781672 0.5678132 4.67510253 -0.9375 8.1875 C-1.31777344 9.08855469 -1.69804688 9.98960937 -2.08984375 10.91796875 C-2.54037109 11.94857422 -2.54037109 11.94857422 -3 13 C-3.66 13 -4.32 13 -5 13 C-5 11.35 -5 9.7 -5 8 C-4.34 8 -3.68 8 -3 8 C-2.690625 6.865625 -2.38125 5.73125 -2.0625 4.5625 C-1 1 -1 1 0 0 Z " fill="#050505" transform="translate(814,496)"/>
<path d="M0 0 C3.05906926 2.51066469 3.75191278 4.90059933 4.6875 8.6875 C5.06455078 10.17830078 5.06455078 10.17830078 5.44921875 11.69921875 C5.63097656 12.45847656 5.81273437 13.21773438 6 14 C5.01 14 4.02 14 3 14 C2.49307308 12.4188708 1.99473557 10.83498617 1.5 9.25 C1.2215625 8.36828125 0.943125 7.4865625 0.65625 6.578125 C0 4 0 4 0 0 Z " fill="#050405" transform="translate(518,497)"/>
<path d="M0 0 C0.33 0.66 0.66 1.32 1 2 C0.67 2.66 0.34 3.32 0 4 C-0.66 4 -1.32 4 -2 4 C-2.4021875 5.1446875 -2.4021875 5.1446875 -2.8125 6.3125 C-3.94424112 8.87380884 -4.91223401 10.19692938 -7 12 C-7.66 11.67 -8.32 11.34 -9 11 C-7.88037801 9.35050343 -6.75413155 7.70550162 -5.625 6.0625 C-4.99851562 5.14597656 -4.37203125 4.22945313 -3.7265625 3.28515625 C-2 1 -2 1 0 0 Z " fill="#F80A09" transform="translate(120,500)"/>
<path d="M0 0 C0 0.99 0 1.98 0 3 C-3.45263456 6.45263456 -6.17054764 7.55074862 -11 8 C-8.21727004 4.72620005 -4.70883468 3.06046371 -1 1 C-0.67 0.67 -0.34 0.34 0 0 Z " fill="#050505" transform="translate(709,547)"/>
<path d="M0 0 C0.598125 0.309375 1.19625 0.61875 1.8125 0.9375 C4.08956772 2.10209704 4.08956772 2.10209704 7 3 C7 3.66 7 4.32 7 5 C7.99 5.33 8.98 5.66 10 6 C9.67 6.99 9.34 7.98 9 9 C7.88625 8.071875 7.88625 8.071875 6.75 7.125 C4.51198812 5.39562719 2.56260013 4.13893339 0 3 C0 2.01 0 1.02 0 0 Z " fill="#020203" transform="translate(921,541)"/>
<path d="M0 0 C1 3 1 3 0.14453125 4.75390625 C-4.27862595 10.75954198 -4.27862595 10.75954198 -8 12 C-7.67 10.68 -7.34 9.36 -7 8 C-6.34 8 -5.68 8 -5 8 C-4.01 6.02 -3.02 4.04 -2 2 C-1.34 2 -0.68 2 0 2 C0 1.34 0 0.68 0 0 Z " fill="#F60C09" transform="translate(144,510)"/>
<path d="M0 0 C0.66 0.33 1.32 0.66 2 1 C-0.97 4.3 -3.94 7.6 -7 11 C-7.33 10.01 -7.66 9.02 -8 8 C-6.85546875 6.2109375 -6.85546875 6.2109375 -5.1875 4.375 C-4.64480469 3.76398438 -4.10210937 3.15296875 -3.54296875 2.5234375 C-2 1 -2 1 0 0 Z " fill="#F80604" transform="translate(238,507)"/>
<path d="M0 0 C3.3 0 6.6 0 10 0 C9.67 2.31 9.34 4.62 9 7 C8.34 6.67 7.68 6.34 7 6 C7 4.35 7 2.7 7 1 C4.69 1 2.38 1 0 1 C0 0.67 0 0.34 0 0 Z " fill="#313132" transform="translate(817,463)"/>
<path d="M0 0 C3 3.75 3 3.75 3 6 C4.32 6.33 5.64 6.66 7 7 C6.67 7.99 6.34 8.98 6 10 C3.69 8.02 1.38 6.04 -1 4 C-0.67 2.68 -0.34 1.36 0 0 Z " fill="#040404" transform="translate(671,544)"/>
<path d="M0 0 C0.66 0 1.32 0 2 0 C0.33333333 3.33333333 -1.33333333 6.66666667 -3 10 C-3.99 9.67 -4.98 9.34 -6 9 C-5.05016642 7.49460339 -4.08988109 5.99579653 -3.125 4.5 C-2.59132813 3.6646875 -2.05765625 2.829375 -1.5078125 1.96875 C-0.76144531 0.99421875 -0.76144531 0.99421875 0 0 Z " fill="#F70A07" transform="translate(99,528)"/>
<path d="M0 0 C0.65234375 1.765625 0.65234375 1.765625 1 4 C0.00390625 5.921875 0.00390625 5.921875 -1.4375 7.75 C-1.91058594 8.36359375 -2.38367188 8.9771875 -2.87109375 9.609375 C-3.24363281 10.06828125 -3.61617187 10.5271875 -4 11 C-4.66 10.67 -5.32 10.34 -6 10 C-4 6.66666667 -2 3.33333333 0 0 Z " fill="#F70705" transform="translate(152,497)"/>
<path d="M0 0 C0 0.66 0 1.32 0 2 C-3.19026533 4.32019297 -6.41726669 6.34643078 -10 8 C-8.48502075 3.75805811 -4.70198172 0 0 0 Z " fill="#050506" transform="translate(400,464)"/>
<path d="M0 0 C2.39073445 3.82517513 2.55966552 7.59665524 3 12 C1 11 1 11 0.33203125 9.00390625 C0.16058594 8.19824219 -0.01085937 7.39257812 -0.1875 6.5625 C-0.36667969 5.75941406 -0.54585937 4.95632813 -0.73046875 4.12890625 C-1 2 -1 2 0 0 Z " fill="#060606" transform="translate(527,523)"/>
<path d="M0 0 C1.47193312 2.94386623 0.84936173 5.37390036 0.5625 8.625 C0.40974609 10.40777344 0.40974609 10.40777344 0.25390625 12.2265625 C0.12822266 13.59941406 0.12822266 13.59941406 0 15 C-0.33 15 -0.66 15 -1 15 C-1.06058594 14.38511719 -1.12117188 13.77023437 -1.18359375 13.13671875 C-1.26738281 12.32847656 -1.35117187 11.52023437 -1.4375 10.6875 C-1.51871094 9.88699219 -1.59992188 9.08648437 -1.68359375 8.26171875 C-1.95265693 5.83912821 -1.95265693 5.83912821 -3 3 C-2.01 2.01 -1.02 1.02 0 0 Z " fill="#F60302" transform="translate(266,433)"/>
<path d="M0 0 C-1.45255699 3.82946843 -3.42895561 5.12050295 -7 7 C-3.86206897 0 -3.86206897 0 0 0 Z " fill="#070707" transform="translate(921,504)"/>
<path d="M0 0 C-1 3 -1 3 -3.4375 4.75 C-4.7059375 5.36875 -4.7059375 5.36875 -6 6 C-6.66 5.67 -7.32 5.34 -8 5 C-2.25 0 -2.25 0 0 0 Z " fill="#030304" transform="translate(918,446)"/>
<path d="M0 0 C2.96404505 2.80804268 5.44499019 5.18315774 7 9 C3.64564078 7.61198929 1.88709697 6.11371 0 3 C0 2.01 0 1.02 0 0 Z " fill="#F70805" transform="translate(179,447)"/>
</svg>
